<svg xmlns="http://www.w3.org/2000/svg" width="500" viewBox="70 85 240 200" height="200" preserveAspectRatio="xMidYMid meet" version="1.0"><path fill="#ffffff" d="M 205.050781 89.550781 C 203.558594 91.042969 204.554688 93.414062 206.675781 93.414062 C 208.0625 93.414062 208.558594 92.84375 208.558594 91.257812 C 208.558594 89.117188 206.488281 88.109375 205.050781 89.550781 M 182.207031 93.53125 C 181.101562 94.078125 180.808594 96.136719 181.742188 96.820312 C 183.371094 98.007812 185.566406 96.425781 184.753906 94.648438 C 184.199219 93.433594 183.25 93.015625 182.207031 93.53125 M 148.878906 96.261719 C 146.132812 97.085938 143.964844 99.90625 143.964844 102.652344 L 143.964844 103.949219 L 137.910156 106.890625 C 118.710938 116.226562 104.761719 127.8125 94.175781 143.207031 C 88.867188 150.925781 84.660156 159.226562 82.132812 166.960938 C 80.757812 171.164062 79.011719 177.875 79.042969 178.832031 C 79.058594 179.253906 79.59375 177.703125 80.238281 175.386719 C 81.59375 170.496094 81.789062 169.878906 83.003906 166.691406 C 83.5 165.386719 83.910156 164.238281 83.914062 164.144531 C 83.917969 164.046875 84.6875 162.34375 85.625 160.359375 C 89.710938 151.695312 96.101562 141.964844 102.035156 135.363281 C 107.808594 128.941406 114.199219 123.070312 119.214844 119.574219 C 120.566406 118.632812 122.109375 117.503906 122.640625 117.066406 C 125.65625 114.59375 142.121094 105.699219 143.6875 105.699219 C 144.316406 105.699219 145.585938 108.085938 145.167969 108.476562 C 144.988281 108.640625 143.035156 109.757812 140.828125 110.953125 C 129.722656 116.972656 120.363281 123.972656 112.144531 132.410156 C 98.207031 146.71875 89.800781 162.792969 87.640625 179.269531 C 86.691406 186.492188 86.933594 192.039062 88.5625 200.390625 L 89.328125 204.332031 L 87.683594 205.953125 C 86.78125 206.847656 86.039062 207.71875 86.039062 207.890625 C 86.039062 208.066406 85.875 208.207031 85.671875 208.207031 C 85.304688 208.207031 84.414062 206.167969 84.558594 205.664062 C 84.601562 205.519531 84.464844 205.398438 84.257812 205.398438 C 84.015625 205.398438 83.964844 205.796875 84.121094 206.5 C 84.253906 207.105469 84.46875 209.695312 84.597656 212.253906 C 84.824219 216.652344 84.894531 216.988281 85.878906 218.410156 C 86.449219 219.234375 87.675781 220.476562 88.597656 221.167969 C 89.6875 221.980469 90.996094 223.535156 92.304688 225.582031 C 95.964844 231.296875 101.867188 237.605469 108.683594 243.097656 C 113.3125 246.828125 123.078125 252.136719 130.039062 254.710938 C 137.570312 257.492188 146.378906 259.609375 155.199219 260.75 C 161.574219 261.578125 174.851562 261.574219 181.703125 260.746094 C 203.351562 258.132812 224.757812 250.546875 240.980469 239.746094 C 244.527344 237.386719 251.113281 232.328125 251.816406 231.429688 C 252.066406 231.109375 251.714844 231.28125 251.039062 231.804688 C 248.308594 233.914062 241.53125 238.425781 238.25 240.3125 C 210.355469 256.367188 177.535156 262.777344 149.40625 257.664062 C 134.933594 255.03125 120.265625 249.238281 110.964844 242.480469 C 104.757812 237.96875 98.78125 232.078125 95.382812 227.117188 C 94.105469 225.257812 93.0625 223.597656 93.0625 223.429688 C 93.0625 223.265625 93.96875 223.128906 95.078125 223.128906 C 96.191406 223.128906 97.402344 223.046875 97.769531 222.953125 C 98.273438 222.820312 98.9375 223.386719 100.449219 225.234375 C 103.507812 228.972656 109.90625 235.125 113.152344 237.449219 C 133.226562 251.820312 162.359375 257.367188 191.847656 252.4375 C 213.261719 248.855469 232.367188 241.257812 248.71875 229.828125 C 255.292969 225.234375 265.847656 216.332031 270.816406 211.191406 C 274.800781 207.070312 279.285156 200.253906 283.28125 192.234375 C 288.546875 181.667969 290.699219 171.289062 289.703125 161.25 C 289.460938 158.792969 289.175781 156.207031 289.074219 155.511719 C 288.894531 154.300781 288.960938 154.199219 290.5 153.339844 C 292.425781 152.265625 292.441406 152.277344 293.277344 156.253906 C 294.476562 161.941406 294.664062 164.257812 294.460938 170.726562 C 294.21875 178.386719 293.429688 182.582031 290.660156 190.910156 C 287.410156 200.691406 280.808594 212.558594 273.625 221.550781 C 272.3125 223.191406 268.15625 227.644531 264.386719 231.445312 C 260.617188 235.25 257.730469 238.246094 257.972656 238.101562 C 258.210938 237.960938 260.53125 235.921875 263.121094 233.574219 C 267.992188 229.160156 273.082031 223.730469 277.5625 218.175781 C 285.082031 208.84375 291.1875 196.582031 294.199219 184.765625 C 296.871094 174.28125 296.914062 161.363281 294.300781 152.828125 C 293.777344 151.105469 293.78125 150.898438 294.351562 149.695312 C 296.390625 145.425781 294.796875 140.128906 290.722656 137.621094 C 289.347656 136.777344 288.582031 135.878906 286.894531 133.15625 C 277.003906 117.152344 259.042969 105.515625 237.523438 101.179688 C 223.914062 98.433594 209.621094 98.664062 194.054688 101.875 C 192.089844 102.28125 190.414062 102.675781 190.332031 102.75 C 190.039062 103.035156 191.375 102.878906 193.539062 102.375 C 197.28125 101.507812 203.160156 100.789062 209.734375 100.398438 C 227.203125 99.363281 245.523438 103.125 259.8125 110.679688 C 262.035156 111.855469 264.71875 113.398438 265.78125 114.109375 C 266.84375 114.824219 268.503906 115.933594 269.46875 116.582031 C 271.628906 118.027344 280.207031 126.546875 282.316406 129.339844 C 283.929688 131.476562 286.496094 135.539062 286.496094 135.953125 C 286.496094 136.21875 282.695312 137.136719 282.511719 136.914062 C 282.449219 136.832031 281.398438 135.425781 280.175781 133.785156 C 276.996094 129.507812 274.457031 126.703125 271.046875 123.699219 C 259.4375 113.457031 244.816406 107.078125 227.691406 104.78125 C 222.230469 104.050781 209.167969 103.945312 202.867188 104.585938 C 188.367188 106.0625 171.992188 110.789062 159.277344 117.175781 C 155.730469 118.957031 147.125 123.867188 147.125 124.113281 C 147.125 124.160156 149.539062 122.992188 152.488281 121.515625 C 167.5 114 182.597656 109.328125 198.730469 107.210938 C 205.515625 106.324219 222.78125 106.320312 228.746094 107.207031 C 247.003906 109.925781 263.019531 117.28125 273.539062 127.789062 C 276.726562 130.96875 280.425781 135.703125 281.097656 137.464844 C 281.214844 137.761719 280.785156 138.582031 280.089844 139.390625 C 277.832031 142.027344 277.320312 146.375 278.902344 149.492188 C 280.417969 152.484375 282.777344 154.136719 286.144531 154.5625 C 286.929688 154.660156 287.0625 154.914062 287.421875 156.953125 C 288.003906 160.265625 287.976562 167.46875 287.367188 171.511719 C 284.929688 187.683594 274.59375 205.027344 259.640625 218.023438 C 241.523438 233.769531 222.519531 243.292969 198.730469 248.539062 C 190 250.464844 181.078125 251.386719 171.144531 251.386719 C 152.773438 251.390625 138.1875 248.089844 123.429688 240.582031 C 117.039062 237.335938 112.289062 234.042969 107.488281 229.535156 C 104.839844 227.050781 100.785156 222.273438 100.785156 221.640625 C 100.785156 221.359375 101.34375 220.480469 102.027344 219.683594 C 105.464844 215.664062 104.695312 209.152344 100.375 205.738281 C 98.507812 204.261719 97.003906 203.730469 93.644531 203.355469 L 91.519531 203.117188 L 90.710938 199.957031 C 90 197.1875 89.898438 195.917969 89.878906 189.664062 C 89.855469 182.085938 89.984375 180.199219 90.832031 175.734375 C 93.882812 159.671875 104.339844 142.308594 119.074219 128.835938 C 127.203125 121.402344 137.570312 113.882812 144.710938 110.242188 L 146.148438 109.507812 L 147.953125 110.289062 C 150.097656 111.21875 153.171875 111.304688 154.757812 110.484375 C 156.640625 109.511719 158.300781 107.214844 158.742188 104.976562 L 159.136719 102.960938 L 164.371094 100.941406 C 167.25 99.832031 169.546875 98.863281 169.472656 98.792969 C 169.398438 98.71875 167.082031 99.453125 164.320312 100.425781 C 161.558594 101.394531 159.199219 102.1875 159.078125 102.1875 C 158.953125 102.1875 158.648438 101.625 158.398438 100.9375 C 157.847656 99.421875 156.148438 97.421875 154.824219 96.738281 C 153.515625 96.058594 150.390625 95.8125 148.878906 96.261719 M 195.273438 117.144531 C 194.445312 117.726562 194.277344 119.007812 194.9375 119.671875 C 195.171875 119.902344 195.800781 120.09375 196.335938 120.09375 C 197.085938 120.09375 197.363281 119.886719 197.53125 119.214844 C 197.976562 117.445312 196.621094 116.203125 195.273438 117.144531 M 233.695312 117.472656 C 232.402344 118.140625 231.753906 118.992188 231.742188 120.027344 C 231.703125 122.8125 234.757812 124.238281 236.871094 122.421875 C 239.378906 120.261719 236.613281 115.957031 233.695312 117.472656 M 259.035156 127.316406 C 258.519531 128.453125 259.03125 129.394531 260.160156 129.394531 C 261.21875 129.394531 261.949219 128.238281 261.546875 127.203125 C 261.105469 126.0625 259.578125 126.132812 259.035156 127.316406 M 137.660156 128.496094 C 137.136719 129.46875 137.207031 130.085938 137.9375 130.988281 C 139.351562 132.734375 141.910156 130.597656 140.671875 128.707031 C 139.941406 127.59375 138.207031 127.472656 137.660156 128.496094 M 119.230469 150.722656 C 119.132812 151.15625 118.996094 159.605469 118.921875 169.496094 C 118.796875 186.03125 118.835938 187.519531 119.378906 188.011719 C 119.828125 188.421875 120.832031 188.550781 123.535156 188.550781 C 127.054688 188.550781 127.105469 188.539062 127.324219 187.664062 C 127.445312 187.179688 127.460938 181.574219 127.359375 175.207031 C 127.183594 164.058594 127.246094 162.21875 127.804688 162.21875 C 128.234375 162.21875 136.746094 176.746094 140.609375 184.074219 C 141.703125 186.148438 142.792969 187.847656 143.027344 187.847656 C 143.265625 187.847656 144.308594 186.226562 145.351562 184.25 C 147.671875 179.835938 155.164062 166.996094 157.023438 164.238281 C 157.773438 163.128906 158.535156 162.21875 158.722656 162.21875 C 158.933594 162.21875 159.0625 167.109375 159.0625 175.179688 L 159.0625 188.144531 L 160.027344 188.347656 C 161.226562 188.605469 166.5625 188.378906 167.09375 188.046875 C 167.71875 187.660156 167.640625 151.332031 167.011719 150.472656 C 166.578125 149.878906 166.128906 149.84375 161.339844 150.042969 C 158.480469 150.160156 156.019531 150.378906 155.871094 150.53125 C 155.722656 150.6875 155.019531 151.917969 154.308594 153.269531 C 152.832031 156.066406 151.320312 158.703125 147.464844 165.203125 C 145.972656 167.714844 144.492188 170.28125 144.175781 170.910156 C 143.855469 171.535156 143.453125 172.050781 143.28125 172.050781 C 143.105469 172.050781 142.597656 171.421875 142.148438 170.652344 C 141.699219 169.886719 140.441406 167.792969 139.355469 166.003906 C 136.234375 160.863281 133.609375 156.296875 132.136719 153.449219 C 131.324219 151.878906 130.429688 150.644531 129.910156 150.382812 C 129.34375 150.09375 127.371094 149.941406 124.226562 149.9375 C 119.507812 149.933594 119.402344 149.949219 119.230469 150.722656 M 182.40625 150.292969 C 181.246094 150.433594 179.875 150.71875 179.351562 150.925781 C 177.601562 151.628906 175.625 153.761719 174.804688 155.839844 C 174.046875 157.753906 174.015625 158.277344 174 169.066406 C 173.984375 178.910156 174.058594 180.519531 174.597656 182.066406 C 175.414062 184.402344 176.847656 186.082031 178.9375 187.148438 L 180.652344 188.023438 L 193.992188 188.023438 C 203.578125 188.023438 207.730469 187.902344 208.753906 187.589844 C 210.578125 187.03125 212.929688 185.015625 213.925781 183.160156 C 214.6875 181.734375 214.703125 181.441406 214.703125 169.066406 L 214.703125 156.425781 L 213.714844 154.746094 C 212.472656 152.632812 210.460938 151.15625 208.101562 150.625 C 206.011719 150.15625 185.730469 149.890625 182.40625 150.292969 M 233.132812 150.277344 C 228.261719 150.464844 227.507812 150.582031 225.9375 151.371094 C 222.59375 153.054688 220.824219 157.769531 221.351562 163.601562 C 221.746094 167.949219 223.246094 170.359375 226.464844 171.8125 C 227.941406 172.480469 228.671875 172.523438 237.875 172.472656 C 249.851562 172.402344 250.101562 172.429688 250.835938 173.972656 C 251.6875 175.773438 251.558594 178.132812 250.539062 179.316406 L 249.691406 180.300781 L 222.507812 180.300781 L 222.191406 181.15625 C 222.015625 181.625 221.917969 183.363281 221.976562 185.015625 L 222.074219 188.023438 L 236.878906 188.101562 C 254.011719 188.1875 254.203125 188.164062 256.996094 185.457031 C 259.144531 183.375 259.609375 181.84375 259.621094 176.789062 C 259.632812 171.992188 259.003906 169.921875 256.867188 167.753906 C 254.515625 165.371094 253.96875 165.269531 242.4375 165.136719 C 236.835938 165.070312 231.902344 164.9375 231.472656 164.84375 C 229.609375 164.425781 229.03125 160.199219 230.617188 158.613281 C 231.320312 157.910156 231.644531 157.894531 244.023438 157.972656 C 253.386719 158.03125 256.835938 157.941406 257.207031 157.636719 C 257.945312 157.023438 257.914062 151.242188 257.167969 150.496094 C 256.703125 150.03125 255.3125 149.960938 247.601562 150.007812 C 242.636719 150.039062 236.125 150.160156 233.132812 150.277344 M 185.523438 157.894531 C 182.820312 158.171875 182.699219 158.535156 182.472656 166.960938 C 182.246094 175.34375 182.5 178.789062 183.402344 179.691406 C 183.960938 180.246094 184.925781 180.289062 194.445312 180.183594 L 204.875 180.066406 L 205.75 179.210938 L 206.628906 178.355469 L 206.742188 169.847656 C 206.808594 164.65625 206.710938 160.863281 206.488281 160.113281 C 205.84375 157.9375 205.503906 157.863281 195.746094 157.800781 C 190.917969 157.769531 186.316406 157.8125 185.523438 157.894531 M 302.554688 161.898438 C 301.828125 162.320312 301.722656 164.261719 302.378906 165.113281 C 303.324219 166.339844 305.507812 165.886719 306.152344 164.332031 C 306.519531 163.441406 306.5 163.140625 306.011719 162.398438 C 305.390625 161.449219 303.734375 161.210938 302.554688 161.898438 M 301.316406 178.375 C 300.097656 180.328125 301.671875 182.246094 303.507812 181.042969 C 305.035156 180.042969 304.558594 177.996094 302.753906 177.800781 C 302.050781 177.722656 301.613281 177.898438 301.316406 178.375 M 74.234375 186.285156 C 72.984375 188.195312 73.949219 190.65625 75.941406 190.65625 C 77.167969 190.65625 79.019531 188.972656 79.019531 187.859375 C 79.019531 185.6875 75.40625 184.5 74.234375 186.285156 M 75.273438 186.96875 C 75.273438 187.289062 75.511719 187.480469 75.832031 187.417969 C 76.496094 187.289062 76.449219 186.660156 75.761719 186.515625 C 75.492188 186.460938 75.273438 186.664062 75.273438 186.96875 M 298.277344 193.695312 C 296.703125 198.03125 293.683594 204.3125 290.882812 209.070312 C 286.582031 216.378906 278.140625 227 276.34375 227.367188 C 273.71875 227.90625 271.75 230.109375 271.75 232.515625 C 271.75 233.265625 270.785156 234.242188 266.417969 237.90625 C 260.953125 242.496094 255.8125 246.371094 253.027344 248 L 251.457031 248.921875 L 249.796875 247.992188 C 246.351562 246.066406 242.015625 247.101562 240.226562 250.28125 C 239.734375 251.160156 239.359375 252.546875 239.25 253.914062 C 239.078125 256.027344 239.125 256.203125 240.3125 257.789062 C 241.878906 259.878906 243.757812 260.867188 246.171875 260.867188 C 251.363281 260.867188 254.617188 255.945312 252.609375 251.140625 C 252.316406 250.4375 252.195312 249.75 252.347656 249.617188 C 252.496094 249.480469 254.988281 247.792969 257.882812 245.863281 C 260.78125 243.929688 265.039062 240.832031 267.34375 238.972656 C 269.652344 237.113281 271.640625 235.589844 271.761719 235.589844 C 271.878906 235.589844 272.351562 235.988281 272.808594 236.472656 C 275.359375 239.191406 280.246094 237.765625 281.1875 234.03125 C 281.652344 232.175781 281.261719 230.65625 279.859375 228.914062 L 278.832031 227.636719 L 280.257812 225.96875 C 283.105469 222.636719 288.476562 215.222656 290.621094 211.664062 C 291.828125 209.660156 293.75 205.96875 294.890625 203.464844 C 296.96875 198.902344 299.941406 190.800781 299.75 190.222656 C 299.691406 190.054688 299.03125 191.617188 298.277344 193.695312 M 192.21875 198.472656 C 192.125 198.71875 192.089844 202.707031 192.140625 207.332031 C 192.230469 215.164062 192.28125 215.757812 192.878906 215.871094 C 193.929688 216.074219 195.21875 215.605469 195.21875 215.023438 C 195.21875 214.585938 195.433594 214.632812 196.328125 215.269531 C 197.023438 215.765625 198.128906 216.117188 199.296875 216.214844 C 203.226562 216.539062 206.039062 213.453125 205.65625 209.234375 C 205.40625 206.484375 204.542969 205.066406 202.503906 204.050781 C 200.578125 203.089844 197.707031 202.964844 196.457031 203.78125 C 196.015625 204.074219 195.554688 204.214844 195.4375 204.09375 C 195.316406 203.976562 195.21875 202.8125 195.21875 201.507812 C 195.21875 200.207031 195.125 198.890625 195.007812 198.582031 C 194.746094 197.90625 192.46875 197.816406 192.21875 198.472656 M 156.824219 199.265625 C 156.703125 199.582031 156.601562 203.460938 156.601562 207.886719 L 156.601562 215.933594 L 168.890625 215.933594 L 168.890625 214.921875 C 168.890625 214.367188 168.683594 213.738281 168.429688 213.53125 C 168.175781 213.320312 166.242188 213.105469 164.128906 213.046875 L 160.289062 212.949219 L 160.113281 205.925781 L 159.9375 198.90625 L 158.492188 198.800781 C 157.410156 198.722656 156.988281 198.839844 156.824219 199.265625 M 82.707031 199.785156 C 82.574219 200.199219 82.542969 200.617188 82.640625 200.714844 C 82.738281 200.8125 82.925781 200.550781 83.054688 200.132812 C 83.1875 199.71875 83.21875 199.300781 83.121094 199.203125 C 83.023438 199.105469 82.835938 199.367188 82.707031 199.785156 M 83.132812 201.886719 C 82.984375 202.457031 83.082031 202.945312 83.417969 203.277344 C 83.871094 203.730469 83.929688 203.730469 83.898438 203.28125 C 83.878906 203 83.753906 202.371094 83.617188 201.890625 L 83.367188 201.011719 Z M 75.59375 201.945312 C 75.03125 202.507812 75.035156 203.527344 75.597656 203.878906 C 76.375 204.363281 76.851562 204.292969 77.488281 203.589844 C 77.960938 203.066406 78.023438 202.757812 77.738281 202.308594 C 77.273438 201.5625 76.164062 201.375 75.59375 201.945312 M 177.550781 203.488281 C 175.171875 203.976562 174.695312 204.339844 175.035156 205.398438 C 175.238281 206.046875 175.457031 206.136719 176.386719 205.957031 C 180.019531 205.257812 180.386719 205.277344 181.324219 206.21875 C 181.824219 206.71875 182.230469 207.429688 182.230469 207.808594 C 182.230469 208.425781 181.925781 208.5 179.042969 208.613281 C 175.953125 208.730469 175.820312 208.773438 174.835938 209.875 C 173.488281 211.386719 173.265625 212.441406 173.976562 213.945312 C 175.050781 216.210938 178.714844 217.03125 181.140625 215.554688 C 181.796875 215.152344 182.429688 214.972656 182.542969 215.152344 C 182.882812 215.667969 184.226562 216.28125 185.007812 216.28125 C 185.953125 216.28125 186.230469 215.117188 185.769531 213.113281 C 185.570312 212.25 185.402344 210.675781 185.398438 209.613281 C 185.382812 207.167969 184.875 205.328125 183.996094 204.53125 C 182.828125 203.476562 179.914062 203.003906 177.550781 203.488281 M 214.289062 203.546875 C 212.398438 204.183594 211.367188 205.46875 211.367188 207.191406 C 211.367188 208.75 212.441406 210.148438 213.882812 210.46875 C 218.007812 211.378906 218.5625 211.578125 218.679688 212.175781 C 218.746094 212.523438 218.609375 213.035156 218.375 213.316406 C 217.839844 213.960938 215.175781 213.964844 213.378906 213.324219 C 212.175781 212.894531 212.023438 212.910156 211.710938 213.488281 C 210.859375 215.085938 211.90625 215.878906 215.28125 216.191406 C 218.863281 216.523438 220.496094 215.867188 221.632812 213.648438 C 222.070312 212.796875 222.097656 212.367188 221.773438 211.402344 C 221.238281 209.796875 220.042969 208.992188 217.511719 208.527344 C 214.890625 208.046875 214.175781 207.671875 214.175781 206.785156 C 214.175781 205.65625 215.738281 205.246094 218.179688 205.738281 C 220.429688 206.1875 220.832031 205.996094 220.839844 204.46875 C 220.847656 203.859375 220.53125 203.640625 219.179688 203.320312 C 217.25 202.863281 216.15625 202.914062 214.289062 203.546875 M 196.445312 206.597656 C 194.839844 208.203125 194.867188 210.921875 196.503906 212.558594 C 197.214844 213.265625 197.769531 213.476562 198.953125 213.476562 C 202.285156 213.476562 203.644531 209.578125 201.289062 206.78125 C 200.125 205.398438 197.734375 205.308594 196.445312 206.597656 M 178.542969 210.570312 C 175.742188 211.257812 176.996094 214.609375 179.84375 214.039062 C 181.335938 213.742188 182.230469 212.867188 182.230469 211.707031 C 182.230469 210.921875 182.039062 210.714844 181.132812 210.535156 C 179.953125 210.296875 179.628906 210.304688 178.542969 210.570312 M 87.082031 230.617188 C 87.3125 231.070312 87.597656 231.34375 87.714844 231.226562 C 87.832031 231.105469 87.644531 230.738281 87.296875 230.40625 C 86.6875 229.824219 86.679688 229.835938 87.082031 230.617188 M 88.148438 232.039062 C 88.148438 232.234375 88.304688 232.488281 88.496094 232.609375 C 88.691406 232.726562 88.847656 232.667969 88.847656 232.472656 C 88.847656 232.28125 88.691406 232.023438 88.496094 231.90625 C 88.304688 231.785156 88.148438 231.847656 88.148438 232.039062 M 132.628906 232.535156 C 131.886719 233.449219 131.878906 233.816406 132.574219 234.8125 C 133.808594 236.574219 136.40625 234.921875 135.675781 232.84375 C 135.246094 231.617188 133.519531 231.441406 132.628906 232.535156 M 89.199219 233.484375 C 89.199219 233.679688 89.367188 233.835938 89.570312 233.835938 C 89.777344 233.835938 89.847656 233.679688 89.726562 233.484375 C 89.605469 233.292969 89.441406 233.132812 89.355469 233.132812 C 89.269531 233.132812 89.199219 233.292969 89.199219 233.484375 M 204.21875 236.332031 C 203.246094 237.71875 204.664062 239.15625 206.046875 238.1875 C 206.945312 237.558594 207.011719 236.902344 206.253906 236.144531 C 205.5 235.390625 204.835938 235.449219 204.21875 236.332031 M 161.191406 236.867188 C 158.800781 239.90625 162.90625 243.84375 165.8125 241.292969 C 166.640625 240.566406 166.949219 238.664062 166.40625 237.648438 C 165.734375 236.382812 164.992188 235.964844 163.386719 235.953125 C 162.210938 235.945312 161.773438 236.128906 161.191406 236.867188 M 161.9375 237.417969 C 161.335938 238.019531 161.417969 238.398438 162.148438 238.398438 C 162.800781 238.398438 163.625 237.773438 163.625 237.277344 C 163.625 236.84375 162.410156 236.945312 161.9375 237.417969 M 93.414062 238.1875 C 93.414062 238.691406 97.691406 243.351562 101.234375 246.699219 C 103.859375 249.179688 108.554688 252.792969 109.152344 252.792969 C 109.378906 252.792969 109.5625 252.925781 109.5625 253.085938 C 109.5625 253.246094 109.996094 253.601562 110.527344 253.875 C 111.058594 254.148438 111.699219 254.570312 111.953125 254.808594 C 112.207031 255.050781 113.472656 255.859375 114.761719 256.605469 C 127.820312 264.179688 141.574219 268.742188 156.601562 270.496094 C 162.765625 271.214844 176.78125 271.625 177.109375 271.101562 C 177.289062 270.804688 176.238281 270.695312 173.210938 270.691406 C 158.429688 270.671875 139.34375 266.726562 126.0625 260.941406 C 113.910156 255.652344 105.863281 250.21875 96.660156 241.09375 C 94.875 239.320312 93.414062 238.015625 93.414062 238.1875 M 235.242188 257.882812 C 234.757812 258.160156 234.519531 258.386719 234.714844 258.386719 C 234.90625 258.386719 235.460938 258.160156 235.941406 257.882812 C 236.425781 257.609375 236.664062 257.382812 236.46875 257.382812 C 236.277344 257.382812 235.722656 257.609375 235.242188 257.882812 M 218.828125 261.65625 C 218.027344 262.65625 217.996094 263.632812 218.742188 264.378906 C 219.863281 265.503906 221.898438 264.589844 221.898438 262.960938 C 221.898438 261.632812 219.621094 260.667969 218.828125 261.65625 M 205.136719 266.71875 C 204.894531 266.816406 204.699219 267.257812 204.699219 267.699219 C 204.699219 268.785156 205.382812 269.285156 206.367188 268.914062 C 207.222656 268.589844 207.40625 267.578125 206.734375 266.90625 C 206.296875 266.46875 205.878906 266.417969 205.136719 266.71875 M 189.707031 271.5 C 189.398438 271.804688 189.074219 272.097656 188.742188 272.378906 C 188.421875 272.644531 188.199219 273.394531 188.199219 274.203125 C 188.199219 276.484375 190.320312 277.40625 192.1875 275.9375 C 193.6875 274.757812 193.425781 272.460938 191.683594 271.5625 C 190.5 270.949219 190.261719 270.941406 189.707031 271.5 " fill-opacity="1" fill-rule="evenodd"/></svg>