<svg xmlns="http://www.w3.org/2000/svg" xmlns:xlink="http://www.w3.org/1999/xlink" width="500" zoomAndPan="magnify" viewBox="68 84 244 200" height="500" preserveAspectRatio="xMidYMid meet" version="1.0"><path fill="#728fe7" d="M 147.214844 92.285156 L 151.976562 92.285156 L 154.175781 93.382812 L 156.738281 96.3125 L 157.46875 97.777344 L 157.46875 98.875 L 158.203125 99.242188 L 157.835938 99.609375 L 157.105469 102.90625 L 155.273438 105.835938 L 153.074219 107.300781 L 151.609375 107.664062 L 148.316406 107.664062 L 145.019531 106.199219 L 142.820312 106.933594 L 134.765625 111.695312 L 128.539062 116.089844 L 124.144531 119.382812 L 119.382812 123.414062 L 115.722656 126.707031 L 107.300781 135.132812 L 104.371094 138.792969 L 99.242188 145.75 L 94.847656 153.074219 L 90.820312 161.5 L 87.523438 171.386719 L 86.425781 176.878906 L 85.691406 184.203125 L 85.691406 192.261719 L 86.425781 198.851562 L 87.523438 203.980469 L 91.1875 203.980469 L 94.847656 205.078125 L 98.511719 208.375 L 99.976562 210.9375 L 100.707031 213.5 L 100.707031 216.0625 L 99.242188 220.09375 L 97.046875 222.65625 L 97.777344 224.488281 L 102.171875 229.246094 L 105.46875 232.542969 L 110.59375 236.570312 L 117.1875 240.964844 L 124.144531 244.628906 L 131.101562 247.558594 L 138.792969 250.121094 L 146.851562 251.953125 L 156.003906 253.417969 L 159.667969 253.785156 L 181.640625 253.785156 L 191.160156 252.683594 L 202.515625 250.488281 L 212.035156 247.925781 L 223.386719 243.894531 L 232.175781 239.867188 L 241.332031 235.105469 L 249.390625 229.980469 L 255.613281 225.21875 L 261.472656 220.457031 L 265.867188 216.429688 L 268.796875 213.867188 L 271.363281 210.9375 L 274.292969 207.640625 L 279.050781 201.414062 L 283.445312 194.089844 L 286.375 188.230469 L 289.304688 180.90625 L 291.136719 173.949219 L 291.871094 169.1875 L 291.871094 156.738281 L 291.136719 153.074219 L 287.109375 152.34375 L 283.445312 149.046875 L 281.980469 145.75 L 281.980469 141.722656 L 283.445312 138.0625 L 285.277344 135.863281 L 283.082031 131.835938 L 279.785156 127.808594 L 276.855469 124.511719 L 273.925781 121.949219 L 266.96875 116.820312 L 260.375 113.160156 L 253.417969 109.863281 L 246.460938 107.300781 L 236.207031 104.734375 L 225.953125 103.269531 L 220.09375 102.90625 L 211.667969 102.90625 L 201.414062 103.636719 L 192.625 104.734375 L 179.441406 107.664062 L 169.921875 110.59375 L 159.667969 114.625 L 154.175781 117.1875 L 153.074219 116.820312 L 160.035156 113.160156 L 167.359375 109.863281 L 180.175781 105.46875 L 192.261719 102.539062 L 202.515625 101.074219 L 207.640625 100.707031 L 224.851562 100.707031 L 233.640625 101.804688 L 242.066406 103.636719 L 249.023438 105.835938 L 255.980469 108.765625 L 261.839844 111.695312 L 266.601562 114.625 L 270.628906 117.554688 L 275.390625 121.582031 L 281.25 127.441406 L 284.546875 131.835938 L 286.742188 134.765625 L 290.769531 134.398438 L 289.671875 131.835938 L 287.109375 127.808594 L 283.8125 123.777344 L 278.6875 118.285156 L 275.390625 115.355469 L 269.164062 110.960938 L 262.9375 107.300781 L 255.980469 104.003906 L 247.925781 101.074219 L 237.671875 98.511719 L 227.78125 97.046875 L 224.121094 96.679688 L 205.445312 96.679688 L 205.445312 96.3125 L 213.132812 95.582031 L 225.953125 95.582031 L 233.277344 96.3125 L 243.164062 98.144531 L 250.855469 100.339844 L 260.007812 104.003906 L 268.433594 108.398438 L 274.292969 112.425781 L 278.320312 115.722656 L 284.179688 121.214844 L 288.574219 126.707031 L 292.234375 132.203125 L 293.335938 134.398438 L 296.628906 136.597656 L 298.828125 139.160156 L 299.925781 142.820312 L 299.558594 146.484375 L 298.460938 149.78125 L 299.925781 154.90625 L 300.660156 160.398438 L 301.023438 169.1875 L 300.292969 177.246094 L 298.828125 184.570312 L 296.265625 193.359375 L 292.96875 201.050781 L 289.304688 208.375 L 284.179688 216.0625 L 280.515625 220.824219 L 276.488281 225.21875 L 273.925781 228.148438 L 271.363281 230.347656 L 272.09375 228.882812 L 274.65625 226.316406 L 277.953125 222.289062 L 282.714844 215.699219 L 287.109375 208.738281 L 291.503906 200.316406 L 294.433594 193.359375 L 297.363281 183.472656 L 298.828125 175.414062 L 299.195312 171.753906 L 299.195312 164.792969 L 298.460938 158.203125 L 296.996094 151.246094 L 295.164062 151.609375 L 293.335938 152.710938 L 294.066406 158.203125 L 294.433594 165.894531 L 293.699219 173.949219 L 292.234375 180.175781 L 290.039062 186.765625 L 287.109375 193.359375 L 283.445312 199.949219 L 278.320312 207.640625 L 275.023438 211.667969 L 272.09375 214.597656 L 269.164062 217.164062 L 265.503906 220.457031 L 261.472656 224.121094 L 255.613281 228.515625 L 250.855469 232.175781 L 244.261719 236.207031 L 238.035156 239.867188 L 232.175781 242.796875 L 225.953125 245.726562 L 217.164062 249.023438 L 206.175781 252.320312 L 194.457031 254.882812 L 184.203125 256.347656 L 174.683594 257.078125 L 164.429688 257.078125 L 153.074219 255.980469 L 144.652344 254.515625 L 136.230469 252.320312 L 125.976562 248.65625 L 119.019531 245.359375 L 113.890625 242.429688 L 107.664062 238.035156 L 103.269531 234.007812 L 102.539062 233.640625 L 102.539062 232.910156 L 101.074219 232.175781 L 97.777344 228.515625 L 94.847656 224.488281 L 91.1875 224.851562 L 88.621094 224.488281 L 92.285156 229.980469 L 96.679688 235.105469 L 101.074219 239.5 L 106.199219 243.53125 L 112.058594 247.558594 L 118.652344 251.21875 L 124.144531 253.785156 L 133.300781 257.078125 L 139.527344 258.910156 L 150.144531 261.109375 L 160.035156 262.207031 L 176.878906 262.207031 L 185.300781 261.472656 L 199.585938 258.910156 L 210.9375 255.613281 L 218.628906 253.050781 L 228.882812 248.65625 L 234.742188 245.726562 L 242.796875 241.332031 L 244.996094 239.867188 L 245.726562 240.234375 L 241.699219 243.164062 L 234.007812 247.558594 L 228.148438 250.488281 L 222.65625 253.050781 L 212.035156 257.078125 L 203.613281 259.644531 L 194.824219 261.839844 L 183.835938 263.671875 L 176.878906 264.402344 L 170.289062 264.769531 L 165.160156 264.769531 L 154.90625 264.039062 L 145.019531 262.574219 L 135.863281 260.375 L 124.878906 256.714844 L 114.257812 251.585938 L 108.398438 247.925781 L 104.003906 244.628906 L 100.339844 241.332031 L 97.410156 238.769531 L 92.652344 233.640625 L 88.621094 228.148438 L 86.058594 223.753906 L 83.128906 221.558594 L 80.933594 218.992188 L 80.199219 216.796875 L 80.199219 210.570312 L 78.734375 205.078125 L 78.003906 200.683594 L 78.003906 197.753906 L 78.367188 197.753906 L 79.832031 205.078125 L 80.933594 208.738281 L 82.03125 208.375 L 84.226562 205.808594 L 84.960938 205.445312 L 84.226562 201.414062 L 83.128906 194.824219 L 82.761719 191.160156 L 82.761719 183.472656 L 83.863281 174.683594 L 85.691406 167.359375 L 88.621094 159.300781 L 91.550781 153.441406 L 94.847656 147.582031 L 98.144531 142.820312 L 102.539062 136.960938 L 106.566406 132.566406 L 109.128906 129.636719 L 112.058594 126.707031 L 114.988281 124.144531 L 120.117188 119.75 L 125.609375 115.722656 L 132.933594 110.960938 L 139.527344 107.300781 L 143.554688 105.101562 L 142.820312 103.269531 L 142.457031 101.804688 L 133.667969 105.835938 L 127.441406 109.128906 L 120.484375 113.523438 L 114.988281 117.554688 L 111.695312 120.117188 L 106.933594 124.144531 L 99.976562 131.101562 L 96.679688 135.132812 L 94.117188 138.0625 L 90.820312 142.820312 L 87.15625 148.316406 L 82.761719 156.371094 L 79.46875 163.328125 L 76.902344 170.289062 L 76.539062 169.1875 L 79.101562 161.5 L 82.03125 154.90625 L 85.328125 148.679688 L 88.988281 142.820312 L 92.652344 137.695312 L 95.945312 133.667969 L 99.242188 130.003906 L 101.804688 127.074219 L 105.835938 123.046875 L 109.863281 119.75 L 114.988281 115.722656 L 118.652344 113.160156 L 122.679688 110.59375 L 129.636719 106.566406 L 135.863281 103.269531 L 141.722656 100.707031 L 142.457031 96.679688 L 144.652344 93.75 Z M 147.214844 92.285156 " fill-opacity="1" fill-rule="nonzero"/><path fill="#1dcef5" d="M 116.453125 148.316406 L 125.976562 148.316406 L 128.171875 148.679688 L 133.667969 158.933594 L 138.792969 167.359375 L 140.992188 171.019531 L 142.089844 171.386719 L 142.820312 168.824219 L 145.386719 164.792969 L 150.878906 155.273438 L 154.175781 149.046875 L 154.90625 148.679688 L 159.667969 148.316406 L 165.894531 148.316406 L 166.625 149.046875 L 166.625 188.230469 L 157.835938 188.230469 L 157.835938 160.765625 L 156.371094 162.230469 L 153.074219 167.722656 L 149.414062 173.949219 L 146.117188 179.441406 L 142.089844 187.132812 L 140.992188 188.230469 L 137.695312 182.371094 L 134.765625 176.878906 L 131.101562 170.652344 L 127.441406 164.429688 L 125.242188 161.132812 L 124.878906 161.5 L 124.878906 187.867188 L 124.511719 188.230469 L 116.089844 188.230469 L 116.089844 148.679688 Z M 116.453125 148.316406 " fill-opacity="1" fill-rule="nonzero"/><path fill="#44bcef" d="M 147.214844 92.285156 L 151.976562 92.285156 L 154.175781 93.382812 L 156.738281 96.3125 L 157.46875 97.777344 L 157.46875 98.875 L 158.203125 99.242188 L 157.835938 99.609375 L 157.105469 102.90625 L 155.273438 105.835938 L 153.074219 107.300781 L 151.609375 107.664062 L 148.316406 107.664062 L 145.019531 106.199219 L 142.820312 106.933594 L 134.765625 111.695312 L 128.539062 116.089844 L 124.144531 119.382812 L 119.382812 123.414062 L 115.722656 126.707031 L 107.300781 135.132812 L 104.371094 138.792969 L 99.242188 145.75 L 94.847656 153.074219 L 90.820312 161.5 L 87.523438 171.386719 L 86.425781 176.878906 L 85.691406 184.203125 L 85.691406 192.261719 L 86.425781 198.851562 L 87.523438 203.980469 L 91.1875 203.980469 L 94.847656 205.078125 L 98.511719 208.375 L 99.976562 210.9375 L 100.707031 213.5 L 100.707031 216.0625 L 99.242188 220.09375 L 96.679688 223.386719 L 95.214844 223.753906 L 95.214844 224.851562 L 93.75 224.488281 L 91.1875 224.851562 L 88.621094 224.488281 L 92.285156 229.980469 L 96.679688 235.105469 L 101.074219 239.5 L 106.199219 243.53125 L 112.058594 247.558594 L 118.652344 251.21875 L 124.144531 253.785156 L 133.300781 257.078125 L 139.527344 258.910156 L 150.144531 261.109375 L 160.035156 262.207031 L 176.878906 262.207031 L 185.300781 261.472656 L 199.585938 258.910156 L 210.9375 255.613281 L 218.628906 253.050781 L 228.882812 248.65625 L 234.742188 245.726562 L 242.796875 241.332031 L 244.996094 239.867188 L 245.726562 240.234375 L 241.699219 243.164062 L 234.007812 247.558594 L 228.148438 250.488281 L 222.65625 253.050781 L 212.035156 257.078125 L 203.613281 259.644531 L 194.824219 261.839844 L 183.835938 263.671875 L 176.878906 264.402344 L 170.289062 264.769531 L 165.160156 264.769531 L 154.90625 264.039062 L 145.019531 262.574219 L 135.863281 260.375 L 124.878906 256.714844 L 114.257812 251.585938 L 108.398438 247.925781 L 104.003906 244.628906 L 100.339844 241.332031 L 97.410156 238.769531 L 92.652344 233.640625 L 88.621094 228.148438 L 86.058594 223.753906 L 83.128906 221.558594 L 80.933594 218.992188 L 80.199219 216.796875 L 80.199219 210.570312 L 78.734375 205.078125 L 78.003906 200.683594 L 78.003906 197.753906 L 78.367188 197.753906 L 79.832031 205.078125 L 80.933594 208.738281 L 82.03125 208.375 L 84.226562 205.808594 L 84.960938 205.445312 L 84.226562 201.414062 L 83.128906 194.824219 L 82.761719 191.160156 L 82.761719 183.472656 L 83.863281 174.683594 L 85.691406 167.359375 L 88.621094 159.300781 L 91.550781 153.441406 L 94.847656 147.582031 L 98.144531 142.820312 L 102.539062 136.960938 L 106.566406 132.566406 L 109.128906 129.636719 L 112.058594 126.707031 L 114.988281 124.144531 L 120.117188 119.75 L 125.609375 115.722656 L 132.933594 110.960938 L 139.527344 107.300781 L 143.554688 105.101562 L 142.820312 103.269531 L 142.457031 101.804688 L 133.667969 105.835938 L 127.441406 109.128906 L 120.484375 113.523438 L 114.988281 117.554688 L 111.695312 120.117188 L 106.933594 124.144531 L 99.976562 131.101562 L 96.679688 135.132812 L 94.117188 138.0625 L 90.820312 142.820312 L 87.15625 148.316406 L 82.761719 156.371094 L 79.46875 163.328125 L 76.902344 170.289062 L 76.539062 169.1875 L 79.101562 161.5 L 82.03125 154.90625 L 85.328125 148.679688 L 88.988281 142.820312 L 92.652344 137.695312 L 95.945312 133.667969 L 99.242188 130.003906 L 101.804688 127.074219 L 105.835938 123.046875 L 109.863281 119.75 L 114.988281 115.722656 L 118.652344 113.160156 L 122.679688 110.59375 L 129.636719 106.566406 L 135.863281 103.269531 L 141.722656 100.707031 L 142.457031 96.679688 L 144.652344 93.75 Z M 147.214844 92.285156 " fill-opacity="1" fill-rule="nonzero"/><path fill="#1fccf4" d="M 190.0625 148.316406 L 204.34375 148.316406 L 209.839844 149.046875 L 213.5 151.246094 L 215.332031 153.808594 L 216.0625 156.371094 L 216.0625 179.808594 L 214.964844 183.472656 L 212.402344 186.402344 L 208.738281 187.867188 L 206.542969 188.230469 L 181.640625 188.230469 L 177.613281 186.765625 L 175.046875 184.203125 L 173.582031 180.542969 L 173.582031 157.105469 L 174.316406 154.175781 L 175.78125 151.609375 L 178.710938 149.414062 L 180.90625 148.679688 Z M 186.765625 156.371094 L 183.105469 157.105469 L 182.371094 157.835938 L 182.371094 178.34375 L 184.203125 180.175781 L 204.710938 180.175781 L 206.542969 179.441406 L 207.640625 177.613281 L 207.640625 158.933594 L 206.542969 157.105469 L 205.808594 156.738281 L 202.515625 156.371094 Z M 186.765625 156.371094 " fill-opacity="1" fill-rule="nonzero"/><path fill="#21ccf4" d="M 244.261719 148.316406 L 259.644531 148.316406 L 260.742188 149.046875 L 260.742188 156.371094 L 260.007812 156.738281 L 234.007812 156.738281 L 232.175781 157.46875 L 231.8125 158.203125 L 231.8125 162.230469 L 232.175781 163.695312 L 234.007812 164.0625 L 251.953125 164.0625 L 256.714844 164.792969 L 259.644531 166.257812 L 261.472656 168.457031 L 262.574219 171.753906 L 262.574219 180.542969 L 261.472656 183.835938 L 259.644531 186.035156 L 255.980469 187.867188 L 253.785156 188.230469 L 223.753906 188.230469 L 223.386719 187.132812 L 223.386719 183.105469 L 223.753906 180.175781 L 252.320312 179.808594 L 253.785156 178.34375 L 253.785156 173.949219 L 253.417969 172.484375 L 251.953125 172.117188 L 229.613281 171.753906 L 226.316406 170.289062 L 223.753906 167.359375 L 223.023438 165.160156 L 223.023438 156.371094 L 224.488281 152.34375 L 227.417969 149.78125 L 230.347656 148.679688 Z M 244.261719 148.316406 " fill-opacity="1" fill-rule="nonzero"/><path fill="#8f90ed" d="M 213.132812 95.582031 L 225.953125 95.582031 L 233.277344 96.3125 L 243.164062 98.144531 L 250.855469 100.339844 L 260.007812 104.003906 L 268.433594 108.398438 L 274.292969 112.425781 L 278.320312 115.722656 L 284.179688 121.214844 L 288.574219 126.707031 L 292.234375 132.203125 L 293.335938 134.398438 L 296.628906 136.597656 L 298.828125 139.160156 L 299.558594 141.722656 L 297.730469 143.554688 L 296.628906 145.019531 L 295.898438 147.582031 L 294.800781 148.679688 L 292.601562 149.414062 L 288.941406 149.414062 L 287.109375 149.78125 L 284.910156 148.316406 L 284.546875 146.851562 L 286.375 147.214844 L 285.644531 145.75 L 284.910156 143.921875 L 284.910156 137.695312 L 285.277344 135.496094 L 282.714844 131.46875 L 279.785156 127.808594 L 276.855469 124.511719 L 273.925781 121.949219 L 266.96875 116.820312 L 260.375 113.160156 L 253.417969 109.863281 L 246.460938 107.300781 L 236.207031 104.734375 L 225.953125 103.269531 L 220.09375 102.90625 L 211.667969 102.90625 L 201.414062 103.636719 L 192.625 104.734375 L 179.441406 107.664062 L 169.921875 110.59375 L 159.667969 114.625 L 154.175781 117.1875 L 153.074219 116.820312 L 160.035156 113.160156 L 167.359375 109.863281 L 180.175781 105.46875 L 192.261719 102.539062 L 202.515625 101.074219 L 207.640625 100.707031 L 224.851562 100.707031 L 233.640625 101.804688 L 242.066406 103.636719 L 249.023438 105.835938 L 255.980469 108.765625 L 261.839844 111.695312 L 266.601562 114.625 L 270.628906 117.554688 L 275.390625 121.582031 L 281.25 127.441406 L 284.546875 131.835938 L 286.742188 134.765625 L 290.769531 134.398438 L 289.671875 131.835938 L 287.109375 127.808594 L 283.8125 123.777344 L 278.6875 118.285156 L 275.390625 115.355469 L 269.164062 110.960938 L 262.9375 107.300781 L 255.980469 104.003906 L 247.925781 101.074219 L 237.671875 98.511719 L 227.78125 97.046875 L 224.121094 96.679688 L 205.445312 96.679688 L 205.445312 96.3125 Z M 213.132812 95.582031 " fill-opacity="1" fill-rule="nonzero"/><path fill="#6b78e7" d="M 300.660156 199.949219 L 301.023438 201.050781 L 296.265625 210.9375 L 292.234375 217.164062 L 287.476562 223.753906 L 283.445312 228.515625 L 283.082031 229.980469 L 284.910156 232.175781 L 285.277344 233.277344 L 285.277344 236.207031 L 283.8125 238.402344 L 281.617188 239.867188 L 278.320312 239.867188 L 275.390625 237.671875 L 270.628906 241.332031 L 265.503906 245.359375 L 258.910156 249.753906 L 254.882812 252.320312 L 255.980469 255.613281 L 255.980469 258.179688 L 254.882812 260.742188 L 253.417969 262.574219 L 251.21875 263.671875 L 247.925781 264.039062 L 244.628906 262.9375 L 242.066406 260.007812 L 241.699219 259.277344 L 241.699219 254.882812 L 243.164062 251.953125 L 244.996094 250.488281 L 246.460938 249.753906 L 250.488281 249.753906 L 253.417969 251.21875 L 255.613281 250.855469 L 260.375 247.558594 L 264.769531 244.261719 L 269.53125 240.234375 L 273.558594 236.9375 L 275.023438 235.839844 L 276.121094 231.8125 L 277.585938 229.980469 L 281.25 228.515625 L 284.179688 225.585938 L 287.476562 221.558594 L 292.234375 214.964844 L 295.164062 210.203125 L 298.460938 204.34375 Z M 300.660156 199.949219 " fill-opacity="1" fill-rule="nonzero"/><path fill="#6a8ee9" d="M 147.214844 92.285156 L 151.976562 92.285156 L 154.175781 93.382812 L 156.738281 96.3125 L 157.46875 97.777344 L 157.46875 98.875 L 158.203125 99.242188 L 157.835938 99.609375 L 157.105469 102.90625 L 155.273438 105.835938 L 153.074219 107.300781 L 151.609375 107.664062 L 148.316406 107.664062 L 145.019531 106.199219 L 142.820312 106.933594 L 139.160156 108.765625 L 139.527344 107.300781 L 143.554688 105.101562 L 142.820312 103.269531 L 142.457031 101.804688 L 133.667969 105.835938 L 127.441406 109.128906 L 120.484375 113.523438 L 114.988281 117.554688 L 111.695312 120.117188 L 106.933594 124.144531 L 99.976562 131.101562 L 96.679688 135.132812 L 94.117188 138.0625 L 90.820312 142.820312 L 87.15625 148.316406 L 82.761719 156.371094 L 79.46875 163.328125 L 76.902344 170.289062 L 76.539062 169.1875 L 79.101562 161.5 L 82.03125 154.90625 L 85.328125 148.679688 L 88.988281 142.820312 L 92.652344 137.695312 L 95.945312 133.667969 L 99.242188 130.003906 L 101.804688 127.074219 L 105.835938 123.046875 L 109.863281 119.75 L 114.988281 115.722656 L 118.652344 113.160156 L 122.679688 110.59375 L 129.636719 106.566406 L 135.863281 103.269531 L 141.722656 100.707031 L 142.457031 96.679688 L 144.652344 93.75 Z M 147.214844 92.285156 " fill-opacity="1" fill-rule="nonzero"/><path fill="#64a0e3" d="M 98.875 239.867188 L 100.339844 239.867188 L 102.171875 240.234375 L 106.566406 243.894531 L 112.058594 247.558594 L 118.652344 251.21875 L 124.144531 253.785156 L 133.300781 257.078125 L 139.527344 258.910156 L 150.144531 261.109375 L 160.035156 262.207031 L 176.878906 262.207031 L 185.300781 261.472656 L 199.585938 258.910156 L 210.9375 255.613281 L 218.628906 253.050781 L 228.882812 248.65625 L 234.742188 245.726562 L 242.796875 241.332031 L 244.996094 239.867188 L 245.726562 240.234375 L 241.699219 243.164062 L 234.007812 247.558594 L 228.148438 250.488281 L 222.65625 253.050781 L 212.035156 257.078125 L 203.613281 259.644531 L 194.824219 261.839844 L 183.835938 263.671875 L 176.878906 264.402344 L 170.289062 264.769531 L 165.160156 264.769531 L 154.90625 264.039062 L 145.019531 262.574219 L 135.863281 260.375 L 124.878906 256.714844 L 114.257812 251.585938 L 108.398438 247.925781 L 104.003906 244.628906 L 100.339844 241.332031 Z M 98.875 239.867188 " fill-opacity="1" fill-rule="nonzero"/><path fill="#8b8dde" d="M 207.640625 100.707031 L 224.851562 100.707031 L 233.640625 101.804688 L 242.066406 103.636719 L 249.023438 105.835938 L 255.980469 108.765625 L 261.839844 111.695312 L 266.601562 114.625 L 270.628906 117.554688 L 275.390625 121.582031 L 281.25 127.441406 L 284.546875 131.835938 L 285.644531 133.300781 L 285.277344 134.765625 L 284.179688 133.667969 L 280.515625 128.539062 L 277.585938 125.609375 L 275.757812 123.777344 L 272.09375 120.484375 L 266.234375 116.453125 L 260.375 113.160156 L 253.417969 109.863281 L 246.460938 107.300781 L 236.207031 104.734375 L 225.953125 103.269531 L 220.09375 102.90625 L 211.667969 102.90625 L 201.414062 103.636719 L 192.625 104.734375 L 179.441406 107.664062 L 169.921875 110.59375 L 159.667969 114.625 L 154.175781 117.1875 L 153.074219 116.820312 L 160.035156 113.160156 L 167.359375 109.863281 L 180.175781 105.46875 L 192.261719 102.539062 L 202.515625 101.074219 Z M 207.640625 100.707031 " fill-opacity="1" fill-rule="nonzero"/><path fill="#30d0ec" d="M 192.625 198.484375 L 195.191406 198.484375 L 195.554688 198.851562 L 195.554688 205.078125 L 197.753906 203.980469 L 202.148438 203.980469 L 204.34375 205.078125 L 206.175781 207.273438 L 206.542969 208.738281 L 206.542969 212.769531 L 205.445312 214.964844 L 202.878906 217.164062 L 201.78125 217.527344 L 198.851562 217.527344 L 196.65625 216.429688 L 195.554688 216.0625 L 195.191406 217.164062 L 192.261719 217.164062 L 192.261719 198.851562 Z M 197.753906 206.542969 L 195.921875 208.007812 L 195.554688 209.105469 L 195.554688 212.035156 L 197.019531 214.234375 L 199.949219 214.964844 L 201.78125 214.234375 L 203.246094 212.035156 L 203.246094 209.472656 L 202.148438 207.273438 L 201.050781 206.542969 Z M 197.753906 206.542969 " fill-opacity="1" fill-rule="nonzero"/><path fill="#34cfec" d="M 176.511719 203.980469 L 182.007812 203.980469 L 184.203125 205.445312 L 185.300781 207.273438 L 185.667969 214.234375 L 186.035156 214.964844 L 186.035156 217.164062 L 183.105469 217.164062 L 182.007812 216.0625 L 180.542969 217.164062 L 179.441406 217.527344 L 176.511719 217.527344 L 174.316406 216.429688 L 173.21875 214.964844 L 173.21875 212.035156 L 174.683594 210.203125 L 176.511719 209.472656 L 182.007812 209.472656 L 181.273438 207.273438 L 180.175781 206.542969 L 177.613281 206.542969 L 175.046875 207.273438 L 174.316406 206.542969 L 174.683594 204.710938 Z M 177.976562 211.304688 L 176.511719 212.402344 L 176.511719 214.597656 L 177.613281 215.332031 L 180.175781 215.332031 L 181.640625 214.597656 L 182.007812 213.867188 L 182.007812 211.667969 L 181.640625 211.304688 Z M 177.976562 211.304688 " fill-opacity="1" fill-rule="nonzero"/><path fill="#25cdec" d="M 156.003906 199.21875 L 158.203125 199.21875 L 158.933594 199.585938 L 158.933594 214.234375 L 167.722656 214.234375 L 167.722656 217.164062 L 155.640625 217.164062 L 155.273438 216.796875 L 155.273438 199.585938 Z M 156.003906 199.21875 " fill-opacity="1" fill-rule="nonzero"/><path fill="#6cb5dc" d="M 87.890625 238.769531 L 90.453125 240.964844 L 91.917969 242.429688 L 91.917969 243.164062 L 93.382812 243.894531 L 96.679688 247.191406 L 99.609375 249.753906 L 106.566406 254.882812 L 113.890625 259.277344 L 120.847656 262.9375 L 130.738281 266.96875 L 142.089844 270.261719 L 150.878906 272.09375 L 160.035156 273.558594 L 170.289062 274.292969 L 170.289062 274.65625 L 161.132812 274.65625 L 150.878906 273.558594 L 141.722656 271.726562 L 133.667969 269.53125 L 123.777344 265.867188 L 114.625 261.472656 L 108.03125 257.445312 L 101.804688 253.050781 L 96.3125 248.289062 L 90.453125 242.429688 L 87.890625 239.5 Z M 87.890625 238.769531 " fill-opacity="1" fill-rule="nonzero"/><path fill="#37d0ed" d="M 217.164062 203.613281 L 221.191406 203.980469 L 222.65625 204.710938 L 222.289062 206.542969 L 220.824219 206.910156 L 219.726562 206.542969 L 216.429688 206.542969 L 215.699219 206.910156 L 216.0625 208.738281 L 221.921875 210.203125 L 223.386719 211.667969 L 223.753906 213.867188 L 222.65625 216.0625 L 221.191406 217.164062 L 219.726562 217.527344 L 215.699219 217.527344 L 212.402344 216.429688 L 212.035156 215.699219 L 212.769531 214.234375 L 215.332031 214.597656 L 219.726562 214.597656 L 220.09375 213.132812 L 218.992188 212.402344 L 214.234375 211.304688 L 212.402344 209.472656 L 212.035156 207.273438 L 213.132812 205.078125 L 215.332031 203.980469 Z M 217.164062 203.613281 " fill-opacity="1" fill-rule="nonzero"/><path fill="#5ca8e8" d="M 161.132812 238.035156 L 163.328125 238.035156 L 165.527344 239.5 L 165.894531 241.332031 L 165.160156 243.164062 L 164.0625 244.261719 L 161.5 244.261719 L 159.667969 242.796875 L 159.667969 239.5 Z M 161.132812 238.035156 " fill-opacity="1" fill-rule="nonzero"/><path fill="#718de7" d="M 235.839844 114.257812 L 238.035156 114.257812 L 239.867188 116.089844 L 239.867188 118.652344 L 238.402344 120.117188 L 235.472656 120.117188 L 234.007812 118.652344 L 233.640625 116.820312 L 235.105469 114.625 Z M 235.839844 114.257812 " fill-opacity="1" fill-rule="nonzero"/><path fill="#3ccaec" d="M 70.3125 185.300781 L 72.875 185.667969 L 73.972656 186.402344 L 74.339844 188.230469 L 73.242188 190.0625 L 72.144531 190.796875 L 69.582031 190.429688 L 68.847656 189.332031 L 68.847656 186.402344 Z M 70.3125 185.300781 " fill-opacity="1" fill-rule="nonzero"/><path fill="#5e90e7" d="M 189.695312 275.023438 L 191.894531 275.023438 L 193.359375 276.855469 L 192.992188 279.050781 L 191.894531 280.152344 L 189.332031 280.152344 L 188.230469 279.050781 L 188.230469 276.855469 L 188.964844 275.390625 Z M 189.695312 275.023438 " fill-opacity="1" fill-rule="nonzero"/><path fill="#767ade" d="M 308.347656 160.035156 L 310.546875 160.398438 L 311.277344 161.5 L 310.914062 164.0625 L 309.8125 164.792969 L 307.617188 164.429688 L 306.882812 161.863281 L 307.617188 160.398438 Z M 308.347656 160.035156 " fill-opacity="1" fill-rule="nonzero"/><path fill="#7b7cd8" d="M 206.175781 84.960938 L 208.375 84.960938 L 209.472656 86.425781 L 209.105469 88.621094 L 208.007812 89.355469 L 206.175781 88.988281 L 205.078125 87.523438 L 205.808594 85.328125 Z M 206.175781 84.960938 " fill-opacity="1" fill-rule="nonzero"/><path fill="#819fe2" d="M 182.007812 89.355469 L 183.835938 89.355469 L 184.570312 90.085938 L 184.570312 92.285156 L 183.472656 93.382812 L 181.640625 93.015625 L 180.90625 92.285156 L 181.273438 89.722656 Z M 182.007812 89.355469 " fill-opacity="1" fill-rule="nonzero"/><path fill="#60c5ec" d="M 130.738281 233.640625 L 132.566406 233.640625 L 133.667969 235.105469 L 132.933594 237.304688 L 130.371094 237.304688 L 130.003906 236.570312 L 130.003906 234.375 Z M 130.738281 233.640625 " fill-opacity="1" fill-rule="nonzero"/><path fill="#84a3e9" d="M 136.230469 125.242188 L 138.425781 125.609375 L 138.792969 128.171875 L 138.0625 128.90625 L 136.230469 128.90625 L 135.132812 127.074219 L 135.496094 125.609375 Z M 136.230469 125.242188 " fill-opacity="1" fill-rule="nonzero"/><path fill="#8590de" d="M 306.882812 177.246094 L 308.714844 177.613281 L 309.082031 177.976562 L 309.082031 180.175781 L 308.347656 180.90625 L 306.519531 180.90625 L 305.785156 179.808594 L 306.152344 177.613281 Z M 306.882812 177.246094 " fill-opacity="1" fill-rule="nonzero"/><path fill="#89a8e5" d="M 220.824219 264.402344 L 222.65625 264.769531 L 223.023438 265.136719 L 223.023438 267.332031 L 222.289062 268.066406 L 220.457031 268.066406 L 219.726562 267.332031 L 219.726562 265.503906 Z M 220.824219 264.402344 " fill-opacity="1" fill-rule="nonzero"/><path fill="#8ca0e7" d="M 195.554688 113.890625 L 197.386719 113.890625 L 198.121094 114.988281 L 197.753906 116.820312 L 195.921875 117.1875 L 194.824219 116.089844 L 195.191406 114.257812 Z M 195.554688 113.890625 " fill-opacity="1" fill-rule="nonzero"/><path fill="#94a3eb" d="M 262.9375 123.777344 L 264.402344 124.144531 L 264.769531 124.511719 L 264.769531 126.34375 L 264.402344 126.707031 L 262.574219 126.707031 L 261.839844 125.242188 Z M 262.9375 123.777344 " fill-opacity="1" fill-rule="nonzero"/><path fill="#88a6e1" d="M 205.445312 238.035156 L 207.273438 238.402344 L 207.273438 240.234375 L 205.445312 240.601562 L 204.710938 240.234375 L 205.078125 238.402344 Z M 205.445312 238.035156 " fill-opacity="1" fill-rule="nonzero"/><path fill="#43c8e6" d="M 71.410156 202.148438 L 72.875 202.515625 L 73.242188 203.980469 L 72.144531 205.078125 L 70.679688 204.34375 L 71.046875 202.515625 Z M 71.410156 202.148438 " fill-opacity="1" fill-rule="nonzero"/><path fill="#88a9e6" d="M 206.542969 269.898438 L 208.007812 270.628906 L 207.640625 272.460938 L 205.808594 272.460938 L 205.445312 270.628906 Z M 206.542969 269.898438 " fill-opacity="1" fill-rule="nonzero"/><path fill="#9b9cd7" d="M 246.09375 239.136719 L 246.824219 239.5 L 245.726562 239.5 Z M 246.09375 239.136719 " fill-opacity="1" fill-rule="nonzero"/><path fill="#9e9cd7" d="M 247.191406 238.402344 L 247.925781 238.769531 L 246.824219 238.769531 Z M 247.191406 238.402344 " fill-opacity="1" fill-rule="nonzero"/><path fill="#a19ed5" d="M 248.65625 237.304688 L 249.390625 237.671875 L 248.289062 237.671875 Z M 248.65625 237.304688 " fill-opacity="1" fill-rule="nonzero"/><path fill="#85b6cc" d="M 75.074219 174.316406 L 75.4375 175.78125 Z M 75.074219 174.316406 " fill-opacity="1" fill-rule="nonzero"/><path fill="#8abace" d="M 75.4375 172.851562 L 75.804688 174.316406 Z M 75.4375 172.851562 " fill-opacity="1" fill-rule="nonzero"/><path fill="#84bad0" d="M 76.171875 170.289062 L 76.539062 171.753906 Z M 76.171875 170.289062 " fill-opacity="1" fill-rule="nonzero"/><path fill="#a3a2cb" d="M 200.316406 97.046875 L 201.78125 97.410156 Z M 200.316406 97.046875 " fill-opacity="1" fill-rule="nonzero"/><path fill="#a4a0ca" d="M 203.246094 96.679688 L 204.710938 97.046875 Z M 203.246094 96.679688 " fill-opacity="1" fill-rule="nonzero"/><path fill="#a0abd4" d="M 150.878906 117.917969 L 151.609375 118.285156 Z M 150.878906 117.917969 " fill-opacity="1" fill-rule="nonzero"/><path fill="#a4b2dd" d="M 151.609375 117.554688 L 152.34375 117.917969 Z M 151.609375 117.554688 " fill-opacity="1" fill-rule="nonzero"/><path fill="#a0afdb" d="M 152.34375 117.1875 L 153.074219 117.554688 Z M 152.34375 117.1875 " fill-opacity="1" fill-rule="nonzero"/><path fill="#9d9fd5" d="M 158.570312 98.511719 L 159.300781 98.875 Z M 158.570312 98.511719 " fill-opacity="1" fill-rule="nonzero"/><path fill="#a2a1d2" d="M 159.300781 98.144531 L 160.035156 98.511719 Z M 159.300781 98.144531 " fill-opacity="1" fill-rule="nonzero"/><path fill="#a2a1ce" d="M 161.132812 97.410156 L 161.863281 97.777344 Z M 161.132812 97.410156 " fill-opacity="1" fill-rule="nonzero"/></svg>